<svg width="337" height="387" viewBox="0 0 337 387" fill="none" xmlns="http://www.w3.org/2000/svg">
<g clip-path="url(#clip0_38_2)">
<path d="M256.535 102.18C262.52 105.829 267.362 109.006 272.728 113.422C268.307 109.286 263.62 105.445 258.696 101.924C257.969 101.998 257.245 102.08 256.535 102.18Z" fill="white"/>
<path d="M230.321 88.4293C231.274 87.5626 232.237 86.7059 233.21 85.8594C231.239 84.9017 231.841 84.8497 229.823 83.9699C229.026 85.14 228.281 86.2798 227.601 87.3849C229.39 87.9743 228.567 87.7576 230.321 88.4293Z" fill="white"/>
<path d="M78.1956 114.999C104.574 91.7446 138.315 79.3069 176.763 79.3069C187.737 79.3069 197.117 78.7348 207.429 80.9277C208.858 79.5886 210.395 78.1628 212.02 76.6806C197.078 71.9136 182.458 71.0728 165.936 71.0728C126.96 71.0728 92.6343 83.6406 65.3031 107.303C69.7247 110.159 74.0555 112.728 78.1956 114.999Z" fill="white"/>
<path d="M211.456 363.542C200.08 366.177 188.44 367.505 176.763 367.498C94.726 367.498 28.219 302.982 28.219 223.403C28.219 195.546 34.2128 171.71 48.3223 149.669C45.1565 145.769 41.8262 141.387 38.3616 136.559C19.1981 162.479 10.03 192.373 10.03 227.086C10.03 313.249 79.8327 383.1 165.936 383.1C176.26 383.104 186.56 382.088 196.684 380.066C200.513 375.732 205.775 369.8 211.456 363.542Z" fill="white"/>
<path d="M301.696 301.375C301.765 302.055 301.821 302.774 301.873 303.541C304.581 298.735 307.031 293.787 309.214 288.72C306.93 293.066 304.42 297.29 301.696 301.375Z" fill="white"/>
<path d="M110.719 175.732L105.956 183.533C105.956 183.533 62.6483 202.167 54.853 216.902C52.2546 222.969 76.9397 229.903 76.9397 229.903C76.9397 229.903 86.9004 235.104 96.8611 229.036C96.8611 229.036 97.7272 216.035 114.184 207.801C130.641 199.567 131.074 200.867 154.027 204.768C176.98 208.668 177.413 207.801 177.413 207.801C177.413 207.801 187.806 190.466 209.893 180.499C209.893 180.499 205.129 164.031 210.759 160.13C216.389 156.23 230.248 164.031 230.248 164.031C230.248 164.031 244.539 133.262 282.649 121.994C282.649 121.994 244.539 115.493 211.192 128.061C211.192 128.061 199.499 167.931 186.074 172.265C186.074 172.265 188.673 154.063 164.854 158.83L158.791 173.132C158.791 173.132 125.877 181.799 122.845 185.266C119.814 188.733 106.389 194.367 106.389 194.367C106.389 194.367 103.357 193.933 104.656 190.9C105.956 187.866 110.719 175.732 110.719 175.732Z" fill="white"/>
<path d="M85.3845 191.55L105.306 182.449C105.306 182.449 118.298 161.214 120.463 158.18C120.463 158.18 100.975 154.28 102.274 128.711C102.274 128.711 49.0064 108.776 29.0851 75.8399C29.0851 75.8399 22.1559 54.6047 26.9197 39.4367C26.9197 39.4367 7.86449 23.8354 0.935322 0C0.935322 0 -5.56077 51.1377 15.6598 93.1747C36.8804 135.212 61.7821 161.864 70.8766 168.798C70.8766 168.798 80.4042 165.331 86.0341 173.132C91.6641 180.932 85.3845 191.55 85.3845 191.55Z" fill="white"/>
<path d="M145.582 139.545C145.582 139.545 121.763 155.58 113.967 173.782C106.172 191.983 107.038 191.55 107.038 191.55L120.464 185.049C120.464 185.049 137.353 160.347 163.338 156.447C175.031 155.147 179.361 156.447 183.259 159.047C187.157 161.647 188.023 166.414 187.59 168.581C187.59 168.581 194.952 170.315 208.81 129.578C208.81 129.578 225.7 104.009 258.614 100.975C258.614 100.975 267.275 71.0728 307.551 37.2699C307.551 37.2699 253.417 65.8724 223.102 97.075C192.787 128.278 158.574 149.946 145.582 139.545Z" fill="white"/>
<path d="M153.377 207.151C153.377 207.151 141.251 218.419 136.92 227.52C134.216 233.337 132.182 239.444 130.857 245.721C130.857 245.721 129.991 250.055 138.653 251.355C147.314 252.655 156.842 252.655 165.936 246.588C165.936 246.588 159.873 240.954 165.07 234.02C170.267 227.086 176.33 219.719 196.251 220.152C216.173 220.586 225.7 213.218 225.7 213.218L218.771 205.851C218.771 205.851 206.645 200.217 206.212 185.483C206.212 185.483 188.456 192.85 179.361 208.885C179.361 208.885 157.275 227.52 150.346 228.386C150.346 228.386 142.983 244.421 136.487 244.421C129.991 244.421 137.353 225.353 153.377 207.151Z" fill="white"/>
<path d="M147.747 138.679C147.747 138.679 192.787 98.8085 197.984 93.1747C203.18 87.5409 243.889 48.1042 267.708 38.57C267.708 38.57 226.566 79.3068 221.803 95.7749C221.803 95.7749 191.488 115.71 181.527 128.711C181.527 128.711 163.771 143.879 147.747 138.679Z" fill="white"/>
<path d="M231.763 164.681C231.763 164.681 235.661 151.68 259.48 133.478C259.48 133.478 271.173 137.378 284.165 151.68L258.614 153.847C258.614 153.847 258.181 160.781 266.842 176.382C266.842 176.382 280.701 182.016 290.228 183.316C290.228 183.316 293.693 178.115 304.953 175.082C304.953 175.082 324.008 195.45 336.567 224.486C336.567 224.486 327.039 220.586 322.709 219.286L333.102 221.886C333.102 221.886 328.772 216.685 309.716 206.284C290.661 195.884 254.716 193.717 254.716 193.717L249.519 188.95C249.519 188.95 278.102 192.417 291.527 191.983C291.527 191.983 237.393 171.615 231.763 164.681Z" fill="white"/>
<path d="M262.945 133.912C262.945 133.912 274.638 139.545 283.732 149.946C283.732 149.946 292.827 144.312 298.89 144.746C304.953 145.179 322.709 155.58 322.709 155.58C322.709 155.58 310.149 138.679 292.827 130.878C292.827 130.878 267.708 132.611 262.945 133.912Z" fill="white"/>
<path d="M259.48 154.713C259.48 154.713 260.779 164.681 267.708 175.515C267.708 175.515 280.701 180.716 289.362 182.016C289.362 182.016 295.425 175.949 307.551 173.782C307.551 173.782 324.874 178.982 337 188.083C337 188.083 320.543 162.081 303.22 154.713C303.22 154.713 296.291 150.813 259.48 154.713Z" fill="white"/>
<path d="M231.763 166.414C219.637 158.18 209.677 161.214 210.543 162.514C210.543 162.514 207.078 167.281 211.409 182.449C211.409 182.449 260.779 189.816 285.464 191.116C285.464 191.116 243.456 175.949 231.763 166.414Z" fill="white"/>
<path d="M210.543 183.316L207.078 185.049C207.078 185.049 206.645 198.484 219.204 205.418L226.999 213.218C226.999 213.218 220.936 218.419 207.511 220.152C194.086 221.886 190.188 220.152 184.125 221.886C184.125 221.886 222.669 224.053 233.062 258.289C233.062 258.289 264.244 218.852 265.976 197.184C265.976 197.184 258.181 195.45 254.716 196.317L247.354 188.95C247.354 188.95 212.708 184.183 210.543 183.316Z" fill="white"/>
<path d="M267.275 197.617C267.275 197.617 282.866 198.917 288.496 201.951C288.496 201.951 300.622 230.12 277.669 273.024C277.669 273.024 291.96 279.957 294.126 285.591C294.126 285.591 279.834 303.359 231.763 318.527C231.763 318.527 247.354 279.091 236.094 256.989C236.094 256.989 260.779 227.086 267.275 197.617Z" fill="white"/>
<path d="M291.094 202.384C291.094 202.384 307.118 204.984 320.11 214.518C320.11 214.518 322.276 230.12 322.276 241.387L314.047 233.587L304.086 257.856L314.913 273.024L319.244 287.758C319.244 287.758 315.779 337.596 298.456 353.63C298.456 353.63 307.551 303.793 300.189 289.925C295.858 282.124 284.598 273.89 280.701 272.59C280.701 272.59 301.055 240.087 291.094 202.384Z" fill="white"/>
<path d="M314.48 236.62L305.819 257.856L316.213 272.157C316.213 272.157 326.173 303.359 325.74 316.361C325.74 316.361 336.567 283.424 334.402 258.289C334.402 258.289 320.11 240.087 314.48 236.62Z" fill="white"/>
<path d="M238.692 274.757C238.55 273.89 236.527 292.959 227.866 302.493L229.598 316.361C229.598 316.361 241.291 289.925 238.692 274.757Z" fill="white"/>
<path d="M194.519 225.786C194.519 225.786 221.37 228.386 232.196 259.156L232.629 260.456L234.795 257.856C234.795 257.856 240.425 266.09 237.826 275.19C235.228 284.291 235.661 290.792 228.299 299.026C220.936 307.26 210.11 303.359 210.11 303.359C210.11 303.359 227.866 299.893 224.401 277.357C223.535 273.89 220.936 268.69 223.968 263.923C226.999 259.156 221.37 238.787 210.976 238.354C200.582 237.921 199.716 233.587 198.85 230.553C197.984 227.52 194.519 225.786 194.519 225.786Z" fill="white"/>
<path d="M297.157 288.625C265.976 336.296 255.149 322.428 242.59 331.962C230.031 341.496 190.621 387 190.621 387C246.921 357.531 272.905 370.532 272.905 370.532C275.071 360.998 300.189 338.029 300.189 338.029C305.819 290.358 297.157 288.625 297.157 288.625ZM249.086 357.097L221.37 364.465L243.889 342.796L259.913 344.963L249.086 357.097Z" fill="white"/>
<path d="M294.992 287.325C294.992 287.325 274.204 308.126 237.826 318.527L229.165 321.561L189.755 367.498L207.078 364.465L241.291 330.662C241.291 330.662 243.456 327.628 255.149 325.895C264.677 325.461 289.795 303.359 294.992 287.325Z" fill="white"/>
<path d="M225.267 304.226L227.866 321.561L187.59 368.365C187.59 368.365 152.511 375.732 138.22 368.365C138.22 368.365 168.102 346.697 179.361 342.796C190.621 338.896 224.401 309.86 225.267 304.226Z" fill="white"/>
<path d="M223.102 304.226C223.102 304.226 200.582 309.427 186.724 299.892C186.724 299.892 142.983 312.46 120.897 331.529C120.897 331.529 153.81 325.028 168.535 328.062C183.259 331.095 185.424 334.129 185.424 334.129C185.424 334.129 217.905 318.527 223.102 304.226Z" fill="white"/>
<path d="M189.755 335.862C189.755 335.862 169.834 343.23 153.377 342.796C153.377 342.796 132.157 360.564 121.763 363.165C121.763 363.165 133.023 366.632 135.621 367.498C138.22 368.365 148.02 359.455 161.172 351.03C171.999 344.096 188.889 338.029 189.755 335.862Z" fill="white"/>
</g>
<defs>
<clipPath id="clip0_38_2">
<rect width="337" height="387" fill="white"/>
</clipPath>
</defs>
</svg>
