<svg width="42" height="42" viewBox="0 0 42 42" fill="none" xmlns="http://www.w3.org/2000/svg">
<path d="M33.5 0.6875H8.5C6.428 0.6875 4.44086 1.5106 2.97573 2.97573C1.5106 4.44086 0.6875 6.428 0.6875 8.5V33.5C0.6875 35.572 1.5106 37.5591 2.97573 39.0243C4.44086 40.4894 6.428 41.3125 8.5 41.3125H21C21.4144 41.3125 21.8118 41.1479 22.1049 40.8549C22.3979 40.5618 22.5625 40.1644 22.5625 39.75V27.25C22.5625 26.8356 22.3979 26.4382 22.1049 26.1451C21.8118 25.8521 21.4144 25.6875 21 25.6875H19.4375V22.5625H21C21.4144 22.5625 21.8118 22.3979 22.1049 22.1049C22.3979 21.8118 22.5625 21.4144 22.5625 21V15.5312C22.5625 14.4952 22.9741 13.5017 23.7066 12.7691C24.4392 12.0366 25.4327 11.625 26.4688 11.625H30.375V14.75H28.8125C27.9837 14.75 27.1888 15.0792 26.6028 15.6653C26.0167 16.2513 25.6875 17.0462 25.6875 17.875V21C25.6875 21.4144 25.8521 21.8118 26.1451 22.1049C26.4382 22.3979 26.8356 22.5625 27.25 22.5625H29.9375L29.1562 25.6875H27.25C26.8356 25.6875 26.4382 25.8521 26.1451 26.1451C25.8521 26.4382 25.6875 26.8356 25.6875 27.25V33.5C25.6875 33.9144 25.8521 34.3118 26.1451 34.6049C26.4382 34.8979 26.8356 35.0625 27.25 35.0625C27.6644 35.0625 28.0618 34.8979 28.3549 34.6049C28.6479 34.3118 28.8125 33.9144 28.8125 33.5V28.8125H30.375C30.7319 28.8229 31.0817 28.7107 31.3659 28.4947C31.6502 28.2786 31.852 27.9717 31.9375 27.625L33.5 21.375C33.5585 21.1444 33.5636 20.9035 33.5149 20.6706C33.4661 20.4377 33.3648 20.219 33.2188 20.0312C33.0668 19.8386 32.8716 19.6845 32.649 19.5814C32.4264 19.4782 32.1827 19.4289 31.9375 19.4375H28.8125V17.875H31.9375C32.3519 17.875 32.7493 17.7104 33.0424 17.4174C33.3354 17.1243 33.5 16.7269 33.5 16.3125V10.0625C33.5 9.6481 33.3354 9.25067 33.0424 8.95765C32.7493 8.66462 32.3519 8.5 31.9375 8.5H26.4688C24.6052 8.50413 22.8192 9.24624 21.5015 10.564C20.1837 11.8817 19.4416 13.6677 19.4375 15.5312V19.4375H17.875C17.4606 19.4375 17.0632 19.6021 16.7701 19.8951C16.4771 20.1882 16.3125 20.5856 16.3125 21V27.25C16.3125 27.6644 16.4771 28.0618 16.7701 28.3549C17.0632 28.6479 17.4606 28.8125 17.875 28.8125H19.4375V38.1875H8.5C7.2568 38.1875 6.06451 37.6936 5.18544 36.8146C4.30636 35.9355 3.8125 34.7432 3.8125 33.5V8.5C3.8125 7.2568 4.30636 6.06451 5.18544 5.18544C6.06451 4.30636 7.2568 3.8125 8.5 3.8125H33.5C34.7432 3.8125 35.9355 4.30636 36.8146 5.18544C37.6936 6.06451 38.1875 7.2568 38.1875 8.5V33.5C38.1875 34.7432 37.6936 35.9355 36.8146 36.8146C35.9355 37.6936 34.7432 38.1875 33.5 38.1875H27.25C26.8356 38.1875 26.4382 38.3521 26.1451 38.6451C25.8521 38.9382 25.6875 39.3356 25.6875 39.75C25.6875 40.1644 25.8521 40.5618 26.1451 40.8549C26.4382 41.1479 26.8356 41.3125 27.25 41.3125H33.5C35.572 41.3125 37.5591 40.4894 39.0243 39.0243C40.4894 37.5591 41.3125 35.572 41.3125 33.5V8.5C41.3125 6.428 40.4894 4.44086 39.0243 2.97573C37.5591 1.5106 35.572 0.6875 33.5 0.6875Z" fill="white"/>
</svg>
