<svg width="50" height="50" viewBox="0 0 50 50" fill="none" xmlns="http://www.w3.org/2000/svg">
<path fill-rule="evenodd" clip-rule="evenodd" d="M15.3205 0.5C7.16465 0.5 0.499985 7.16466 0.499985 15.3205V19.1667C0.499985 20.2712 1.39541 21.1667 2.49998 21.1667C3.60456 21.1667 4.49998 20.2712 4.49998 19.1667V15.3205C4.49998 9.3738 9.37379 4.5 15.3205 4.5H34.5513C40.498 4.5 45.3718 9.3738 45.3718 15.3205V21.2179C45.3718 22.3225 46.2672 23.2179 47.3718 23.2179C48.4763 23.2179 49.3718 22.3225 49.3718 21.2179V15.3205C49.3718 7.16466 42.7071 0.5 34.5513 0.5H15.3205ZM4.49998 26.9871C4.49998 25.8826 3.60456 24.9871 2.49998 24.9871C1.39541 24.9871 0.499985 25.8826 0.499985 26.9871V34.5513C0.499985 42.7071 7.16465 49.3718 15.3205 49.3718H34.5513C42.7071 49.3718 49.3718 42.7071 49.3718 34.5513V28.6538C49.3718 27.5492 48.4763 26.6538 47.3718 26.6538C46.2672 26.6538 45.3718 27.5492 45.3718 28.6538V34.5513C45.3718 40.498 40.498 45.3718 34.5513 45.3718H15.3205C9.37379 45.3718 4.49998 40.498 4.49998 34.5513V26.9871ZM12.0384 24.9359C12.0384 17.8057 17.8057 12.0385 24.9359 12.0385C32.0661 12.0385 37.8333 17.8057 37.8333 24.9359C37.8333 32.0661 32.0661 37.8333 24.9359 37.8333C17.8057 37.8333 12.0384 32.0661 12.0384 24.9359ZM24.9359 16.0385C20.0148 16.0385 16.0384 20.0148 16.0384 24.9359C16.0384 29.857 20.0148 33.8333 24.9359 33.8333C29.857 33.8333 33.8333 29.857 33.8333 24.9359C33.8333 20.0148 29.857 16.0385 24.9359 16.0385ZM35.1923 12.1154C35.1923 10.7051 36.3461 9.55128 37.7564 9.55128C39.1666 9.55128 40.3205 10.7051 40.3205 12.1154C40.3205 13.5256 39.1666 14.6795 37.7564 14.6795C36.3461 14.6795 35.1923 13.5256 35.1923 12.1154Z" fill="white"/>
</svg>
