<svg width="46" height="33" viewBox="0 0 46 33" fill="none" xmlns="http://www.w3.org/2000/svg">
<path d="M44.875 9.74998C44.8766 7.49086 44.0211 5.31524 42.4812 3.66225C40.9413 2.00926 38.8317 1.00199 36.5781 0.843729C27.5625 0.374979 18.4062 0.374979 9.45312 0.812479C5.04687 0.812479 1.125 5.06248 1.125 9.74998C0.670634 14.2803 0.670634 18.8447 1.125 23.375C1.12081 25.5715 1.98618 27.6804 3.53203 29.2409C5.07787 30.8014 7.17853 31.6866 9.375 31.7031C13.9062 31.9531 18.4479 32.0781 23 32.0781C27.5521 32.0781 32.0677 31.9583 36.5469 31.7187C38.7356 31.7149 40.8351 30.8512 42.393 29.3138C43.9508 27.7764 44.8422 25.6884 44.875 23.5C45.5149 18.939 45.5149 14.311 44.875 9.74998ZM41.75 23.2344C41.7423 23.2966 41.7423 23.3596 41.75 23.4219C41.7459 24.1126 41.6055 24.7958 41.3369 25.4322C41.0683 26.0686 40.6768 26.6458 40.1847 27.1306C39.6926 27.6154 39.1097 27.9984 38.4694 28.2575C37.8291 28.5166 37.1439 28.6468 36.4531 28.6406C27.4592 29.1094 18.447 29.1094 9.45312 28.6406C8.75699 28.6346 8.06901 28.4902 7.42921 28.2158C6.78941 27.9414 6.21057 27.5425 5.72638 27.0423C5.24218 26.5421 4.8623 25.9506 4.60884 25.3023C4.35538 24.6539 4.2334 23.9616 4.25 23.2656C3.80404 18.8654 3.80404 14.4314 4.25 10.0312C4.25703 9.97415 4.25703 9.91643 4.25 9.85935C4.23789 8.39274 4.77189 6.97408 5.74808 5.87948C6.72428 4.78487 8.07281 4.09263 9.53125 3.93748C14 3.73435 18.5 3.6406 23 3.6406C27.5 3.6406 32 3.73435 36.4688 3.93748H36.5469C39.2188 3.93748 41.75 6.81248 41.75 9.85935C41.7423 9.93729 41.7423 10.0158 41.75 10.0937C42.3618 14.4421 42.3618 18.8547 41.75 23.2031V23.2344Z" fill="white"/>
<path d="M30.4844 15.2343L19.3281 9.48433C19.1455 9.38995 18.9461 9.33245 18.7412 9.31513C18.5364 9.29782 18.3302 9.32102 18.1343 9.3834C17.9384 9.44579 17.7567 9.54615 17.5997 9.67875C17.4426 9.81135 17.3131 9.97359 17.2188 10.1562C17.1244 10.3388 17.0669 10.5383 17.0496 10.7431C17.0322 10.9479 17.0554 11.1542 17.1178 11.35C17.1802 11.5459 17.2806 11.7276 17.4132 11.8847C17.5458 12.0418 17.708 12.1712 17.8906 12.2656L26.375 16.625L20.125 19.8593V16.625C20.125 16.2106 19.9604 15.8131 19.6674 15.5201C19.3743 15.2271 18.9769 15.0625 18.5625 15.0625C18.1481 15.0625 17.7507 15.2271 17.4576 15.5201C17.1646 15.8131 17 16.2106 17 16.625V22.4375C17 22.8519 17.1646 23.2493 17.4576 23.5423C17.7507 23.8353 18.1481 24 18.5625 24C18.8124 24.001 19.0589 23.942 19.2812 23.8281L30.4375 18.0156C30.6923 17.8836 30.9058 17.684 31.0546 17.4387C31.2034 17.1934 31.2818 16.9119 31.2812 16.625C31.2864 16.3428 31.215 16.0645 31.0747 15.8197C30.9344 15.5748 30.7304 15.3726 30.4844 15.2343Z" fill="white"/>
</svg>
