<svg width="50" height="50" viewBox="0 0 50 50" fill="none" xmlns="http://www.w3.org/2000/svg">
<path d="M46.875 18.75C46.8766 16.4909 46.0211 14.3152 44.4812 12.6623C42.9413 11.0093 40.8317 10.002 38.5781 9.84373C29.5625 9.37498 20.4062 9.37498 11.4531 9.81248C7.04687 9.81248 3.125 14.0625 3.125 18.75C2.67063 23.2803 2.67063 27.8447 3.125 32.375C3.12081 34.5715 3.98618 36.6804 5.53203 38.2409C7.07787 39.8014 9.17853 40.6866 11.375 40.7031C15.9062 40.9531 20.4479 41.0781 25 41.0781C29.5521 41.0781 34.0677 40.9583 38.5469 40.7187C40.7356 40.7149 42.8351 39.8512 44.393 38.3138C45.9508 36.7764 46.8422 34.6884 46.875 32.5C47.5149 27.939 47.5149 23.311 46.875 18.75ZM43.75 32.2344C43.7423 32.2966 43.7423 32.3596 43.75 32.4219C43.7459 33.1126 43.6055 33.7958 43.3369 34.4322C43.0683 35.0686 42.6768 35.6458 42.1847 36.1306C41.6926 36.6154 41.1097 36.9984 40.4694 37.2575C39.8291 37.5166 39.1439 37.6468 38.4531 37.6406C29.4592 38.1094 20.447 38.1094 11.4531 37.6406C10.757 37.6346 10.069 37.4902 9.42921 37.2158C8.78941 36.9414 8.21057 36.5425 7.72638 36.0423C7.24218 35.5421 6.8623 34.9506 6.60884 34.3023C6.35538 33.6539 6.2334 32.9616 6.25 32.2656C5.80404 27.8654 5.80404 23.4314 6.25 19.0312C6.25703 18.9742 6.25703 18.9164 6.25 18.8594C6.23789 17.3927 6.77189 15.9741 7.74808 14.8795C8.72428 13.7849 10.0728 13.0926 11.5312 12.9375C16 12.7344 20.5 12.6406 25 12.6406C29.5 12.6406 34 12.7344 38.4688 12.9375H38.5469C41.2188 12.9375 43.75 15.8125 43.75 18.8594C43.7423 18.9373 43.7423 19.0158 43.75 19.0937C44.3618 23.4421 44.3618 27.8547 43.75 32.2031V32.2344Z" fill="white"/>
<path d="M32.4844 24.2343L21.3281 18.4843C21.1455 18.3899 20.9461 18.3325 20.7412 18.3151C20.5364 18.2978 20.3302 18.321 20.1343 18.3834C19.9384 18.4458 19.7567 18.5462 19.5997 18.6787C19.4426 18.8113 19.3131 18.9736 19.2188 19.1562C19.1244 19.3388 19.0669 19.5383 19.0496 19.7431C19.0322 19.9479 19.0554 20.1542 19.1178 20.35C19.1802 20.5459 19.2806 20.7276 19.4132 20.8847C19.5458 21.0418 19.708 21.1712 19.8906 21.2656L28.375 25.625L22.125 28.8593V25.625C22.125 25.2106 21.9604 24.8131 21.6674 24.5201C21.3743 24.2271 20.9769 24.0625 20.5625 24.0625C20.1481 24.0625 19.7507 24.2271 19.4576 24.5201C19.1646 24.8131 19 25.2106 19 25.625V31.4375C19 31.8519 19.1646 32.2493 19.4576 32.5423C19.7507 32.8353 20.1481 33 20.5625 33C20.8124 33.001 21.0589 32.942 21.2812 32.8281L32.4375 27.0156C32.6923 26.8836 32.9058 26.684 33.0546 26.4387C33.2034 26.1934 33.2818 25.9119 33.2812 25.625C33.2864 25.3428 33.215 25.0645 33.0747 24.8197C32.9344 24.5748 32.7304 24.3726 32.4844 24.2343Z" fill="white"/>
</svg>
